# xmcd
#
# Track frame offsets:
#	150
#	14029
#	27459
#	41571
#	58755
#	70819
#	86296
#	95288
#	107864
#	115491
#	129432
#	143032
#	161070
#	172110
#	192536
#	204260
#	218372
#	235556
#	245401
#	255246
#	262019
#	268792
#	273517
#	279608
#	301913
#	318926
#	333208
#	339981
#
# Disc length: 4797 seconds
#
# Revision: 0
# Processed by: cddbd v1.5.1PL2 Copyright (c) Steve Scherf et al.
# Submitted via: EasyCDDAExtractor 9.0.0.1
#
DISCID=9612bb1c
DTITLE=Various Artist - Best Of D-Block Chapter 9
DYEAR=2004
DGENRE=Hip-Hop
TTITLE0=Jadakiss - Still Leanin' (Green Mix)
TTITLE1=Sheek - Take Me Back
TTITLE2=Styles P. - It's Still On
TTITLE3=Jae Hood - Wall Street (Featuring Facedown)
TTITLE4=Jadakiss - Still Feel Me
TTITLE5=Sheek - I Thought I Told You
TTITLE6=Styles P. - Freestyle
TTITLE7=Jae Hood - Who U Wit
TTITLE8=Jadakiss - Don't Get Scared
TTITLE9=D-Block - Metal Lungies (Featuring Ghostface Killa)
TTITLE10=Jae Hood - Freestyle
TTITLE11=Jadakiss - Why (Featuring Anthony Hamilton)
TTITLE12=Sheek - Murder Capital
TTITLE13=Styles P. - Struggle In My Life (Featuring 354)
TTITLE14=Jadakiss - One Of Ours Pt. II (Featuring Mobb Deep)
TTITLE15=Jae Hood - Y'all Ain't Ready
TTITLE16=Sheek - D.W.I. (Featuring Drag-On)
TTITLE17=D-Block - Stranded On D-Block
TTITLE18=Jadakiss - Gangsta Kiss
TTITLE19=Sheek - The Switch Up Freestyle
TTITLE20=Sheek - The Switch Up Freestyle 2
TTITLE21=Styles P. - Murder Was The Case
TTITLE22=Jae Hood - Get At Me
TTITLE23=Jadakiss - Shine (Featuring. Snoop Dogg and DJ Quik)
TTITLE24=Sheek - Ride Is Rough
TTITLE25=Styles P. - Life Is Hard
TTITLE26=Jae Hood - Crush On You
TTITLE27=The Lox - Welcome To D-Block (Featuring Eminem)
EXTD=
EXTT0=
EXTT1=
EXTT2=
EXTT3=
EXTT4=
EXTT5=
EXTT6=
EXTT7=
EXTT8=
EXTT9=
EXTT10=
EXTT11=
EXTT12=
EXTT13=
EXTT14=
EXTT15=
EXTT16=
EXTT17=
EXTT18=
EXTT19=
EXTT20=
EXTT21=
EXTT22=
EXTT23=
EXTT24=
EXTT25=
EXTT26=
EXTT27=
PLAYORDER=
